<?xml version="1.0" encoding="UTF-8"?>
<svg id="Layer_1" xmlns="http://www.w3.org/2000/svg" version="1.1" viewBox="0 0 2160 1440">
  <!-- Generator: Adobe Illustrator 30.3.0, SVG Export Plug-In . SVG Version: 2.1.3 Build 182)  -->
  <defs>
    <style>
      .st0 {
        fill: #231f20;
      }
    </style>
  </defs>
  <g>
    <path class="st0" d="M697.7,281.9c-2.7-.6-5.6-1-8.8-1.4-3.2-.4-6.6-.7-10.2-.9-3.6-.2-7.2-.3-10.7-.4-3.5,0-6.8-.1-9.8-.1h-8.8c-1.3,0-2.5,0-3.4.3-1,.2-1.4.5-1.4.9,0,4.9,0,10.7.1,17.2,0,6.5.3,13.1.6,19.6.3,6.5.6,12.6,1,18.1.4,5.5.9,9.5,1.7,11.9.4,1.5,2,2.6,4.8,3.3,2.8.7,6.1,1,9.7,1s3.1,0,4.7-.1c1.6,0,3.5-.1,5.5-.1s3.7.5,4.8,1.4c1.1.9,1.7,2.1,1.7,3.4s-.1,2.8-.4,4c-.3,1.1-2.3,1.7-6.1,1.7s-3.9,0-7.3-.3c-3.3-.2-6.9-.4-10.8-.6-3.9-.2-7.9-.2-12.1,0-4.2.2-7.9.6-11.1,1.1-7.6,1.5-14.7,3.3-21.3,5.3-6.6,2-12.6,4-17.9,6.1-5.3,2.1-9.8,4.1-13.4,6.1-3.6,2-6.2,3.8-7.7,5.5-.8.9-1.3,1.4-1.7,1.4h-1.4c-.4,0-1.3-.5-2.8-1.6-1.5-1-2.3-2.4-2.3-4.1s1.6-2.3,4.7-4.1c3.1-1.8,6.9-3.7,11.2-5.7,4.4-2,8.9-3.9,13.6-5.7,4.7-1.8,8.8-3.2,12.2-4.1.9-1.3,1.8-5.1,2.4-11.2.7-6.2,1.2-15.2,1.7-27,.5-11.8.9-26.7,1.1-44.5.3-17.8.5-39.1.7-64,0-6.8,0-13.8-.3-20.9-.2-7.1-.5-13.7-.9-19.9-.4-6.2-1-11.5-1.7-16.1-.8-4.5-1.7-7.8-2.8-9.7-1-1.3-2.7-2.2-5.3-2.7-2.6-.5-5.5-.7-9-.7h-14.6c-1.2,0-2.5-.1-3.8-.4-1.3-.3-2.4-.7-3.3-1.3-.9-.6-1.3-1.3-1.3-2.3,0-2.1.3-3.6.9-4.4.6-.9,3.1-1.3,7.7-1.3s4.3,0,7.1.3c2.8.2,5.7.3,8.7.4,2.9,0,5.9.2,8.8.4,2.9.2,5.5.3,7.8.3,6.1,0,13.6-.6,22.6-1.7,9-1.1,18.2-1.9,27.7-2.3,7-.2,14.2-.3,21.5-.4,7.3,0,14.1-.2,20.5-.3,6.3,0,11.8-.2,16.5-.3,4.6,0,7.8-.3,9.5-.7,1.7-5.3,3.6-9.9,5.7-13.8,2.1-3.9,4.3-5.9,6.5-6.1.9,0,2.2.3,3.8,1,1.6.7,2.4,1.6,2.4,2.7-.6.6-1,1.1-1.4,1.7-.8,1.1-1.1,2-1.1,2.6-2.3,4-4.3,9.1-6.1,15.4-1.8,6.3-3.3,12.7-4.5,19.3-1.2,6.6-2.1,13.1-2.7,19.3s-.6,11.5,0,15.6c-.6,2.8-1.7,4.3-3.4,4.3-3,0-4.9-.5-5.5-1.6-.7-1-.8-2.1-.4-3.3.4-1.5.7-3.5.9-5.8.2-2.4.3-4.3.3-5.8,0-4.5-1.5-8.5-4.5-11.8-3-3.3-7.1-6.1-12.2-8.2-5.1-2.2-11.1-3.8-18.1-5-6.9-1.1-14.3-1.7-22-1.7s-4.9,0-8.4.1c-3.5,0-6.1.9-7.8,2.4-.4,1.5-.8,4.7-1.1,9.7-.4,4.9-.7,10.8-1,17.5-.3,6.7-.5,13.9-.7,21.6-.2,7.7-.3,15.1-.4,22.3,0,7.2-.2,13.7-.3,19.6,0,5.9-.1,10.2-.1,13.1,3.8.2,7.4.3,10.9.3h10.4c11.4.2,21.4,0,30-.7,8.6-.7,14.4-1.5,17.2-2.4,1.7-.6,3.1-1.4,4.1-2.4,1-1,1.9-2.1,2.6-3.3.7-1.1,1.3-2.1,2-3,.7-.9,1.4-1.3,2.1-1.3s1.9.5,2.8,1.4c.9,1,1.2,1.8.9,2.6-1.1,2.1-2.2,5-3.1,8.7-1,3.7-1.8,7.8-2.4,12.2-.7,4.5-1.2,9.1-1.7,13.8-.5,4.7-.7,9.2-.7,13.4s0,1.5.1,2.3c0,.8.1,1.6.1,2.6s-.4,1-1.3,1.3c-.9.3-1.7.4-2.6.4s-1.7,0-2.4-.3c-.8-.2-1.1-.6-1.1-1.1,0-1.1,0-2.5-.3-4.1-.2-1.6-.6-3.2-1.3-4.7-.7-1.5-1.7-3-3.1-4.4-1.4-1.4-3.4-2.6-5.8-3.6l-4.3-1.1Z"/>
    <path class="st0" d="M745.8,221.4c-1.5-.4-2.2-1.1-2.1-2.3,0-1.1.8-1.8,2.1-2,.6-.2,2.4-.9,5.4-2,3-1.1,6.7-2.5,10.9-4,4.3-1.5,8.7-3.1,13.4-4.8,4.6-1.7,8.8-3.1,12.4-4.3,2.3-.8,3.8-1.3,4.7-1.6s1.6-.4,2.1-.4,1.2.2,2,.7c.8.5.9,1.2.6,2.1-.6,1.5-1.2,5.1-1.8,10.8-.7,5.7-1.3,12-1.8,18.9-.6,6.9-1.1,13.8-1.6,20.6-.5,6.8-.7,12.2-.7,16.2,0,15.2,3.2,26.9,9.7,35.1,6.4,8.2,16.5,12.4,30.1,12.4s12.8-1.4,17.5-4.3c4.6-2.8,8.2-6.2,10.7-10,1.7-2.5,2.8-7.9,3.4-16.2,0-1.5,0-3.5.1-6,0-2.5.2-5.1.3-7.8,0-2.7.2-5.4.3-8,0-2.6.1-4.7.1-6.4.2-8.7,0-16.8-.7-24.3-.7-7.5-1.7-13-3-16.6-.6-2.3-1.7-3.4-3.4-3.4s-2.2,0-3.3.1c-1,0-1.7-.7-1.8-2.4,0-.6.6-1.2,1.7-1.8,1.1-.7,3.3-1.7,6.5-3,3-1.1,6.4-2.3,10.1-3.4,3.7-1.1,7.3-2.1,10.9-2.8,3.6-.8,6.8-1.3,9.7-1.6,2.8-.3,4.9-.1,6.3.4,0,.2.1.4.4.7.3.3.5.9.7,1.8.4,1.1.1,4.7-.7,10.7-.9,6-1.8,15.7-2.7,29.1-.8,9.3-1.4,18.3-2,27-.6,8.7-.9,15.4-.9,19.9,0,8.9,1.7,16,5,21.2,3.3,5.2,7.4,7.8,12.4,7.8s6.3-.7,9.2-2c2.9-1.3,5.1-2.5,6.4-3.4,1.5,0,2.3.7,2.4,2,0,1.3-.2,2.2-1,2.6-2.8,1.9-6.8,4.3-11.8,7.1-5,2.8-10.2,5.5-15.6,8.1-5.4,2.6-10.6,4.7-15.5,6.5-4.9,1.8-8.9,2.7-11.9,2.7s-2.9-1-4.1-3c-1.2-2-2.2-4.4-3-7.2-.8-2.8-1.3-5.8-1.7-8.8-.4-3-.6-5.7-.6-8-4,2.8-8.5,5.8-13.6,9s-10.4,6.1-15.9,8.8c-5.5,2.8-10.9,5-16.4,6.7-5.4,1.7-10.4,2.6-14.9,2.6-11.6,0-21-3.1-28.4-9.2-7.4-6.2-11.1-14.2-11.1-24s.2-5.2.6-9.4c.4-4.2.9-8.9,1.4-14.2.6-5.3,1-11,1.4-17.1.4-6.1.6-11.9.6-17.6,0-8.7-1.4-15.4-4.1-20-2.8-4.6-6.3-7.3-10.7-7.8l-4.5-.6Z"/>
    <path class="st0" d="M1044.4,209.7c-.4,1.1-1.5,2.9-3.3,5.3-1.8,2.4-3.9,4.8-6.4,7.4-2.5,2.6-5.1,5-7.8,7.4-2.8,2.4-5.2,4.1-7.3,5.3-1.3.6-2.1.4-2.4-.6-.3-.9-.4-1.9-.4-2.8,0-1.5-.8-3.4-2.4-5.7-1.6-2.3-3.9-4.5-6.8-6.7-2.9-2.2-6.4-4-10.4-5.5-4-1.5-8.3-2.3-13.1-2.3-8.2,0-14.8,4.4-19.9,13.2-5.1,8.8-7.7,20.5-7.7,35.1s1.4,16.9,4.1,24c2.7,7.1,6.5,13.1,11.4,17.9s10.7,8.5,17.5,11.1c6.8,2.6,14.2,3.8,22.2,3.8s19.4-1.4,25.9-4.1c6.4-2.7,11.8-5.9,15.9-9.5.2,0,.3,0,.4-.3,0-.2.2-.3.4-.3.9,0,1.6.3,2,1,.4.7.6,1.5.6,2.4s-.2,1.3-.6,1.7c-2.8,2.3-6.8,5.3-11.8,9.1-5,3.8-10.8,7.5-17.2,11.2-6.4,3.7-13.2,6.9-20.2,9.5-7,2.7-13.9,4-20.8,4-19.5,0-34.7-5.7-45.6-17.1-10.9-11.4-16.4-26.9-16.4-46.6s2.9-27.6,8.7-37.8c5.8-10.2,12.9-18.4,21.3-24.6,8.4-6.2,17.4-10.6,26.9-13.2,9.5-2.7,17.8-4,25-4s11.1.4,15.8,1.3c4.6.9,8.6,1.9,11.9,3.1,3.3,1.2,5.9,2.5,7.7,3.8,1.8,1.3,2.7,2.5,2.7,3.4Z"/>
    <path class="st0" d="M1090.7,273.1c0,3.8,0,8.5-.3,14.2-.2,5.7-.3,11.6-.3,17.6s1,11.7,3.1,14.6c2.1,2.9,4.8,4.4,8.2,4.4s.7,0,1.4-.3c.8-.2,1.6-.3,2.4-.4.9,0,1.7-.2,2.4-.4.8-.2,1.2-.3,1.4-.3.4,0,.8.3,1.3,1,.5.7.6,1.2.4,1.6-1.1,1.3-3.7,2.9-7.8,4.8-4.1,1.9-8.6,3.7-13.6,5.5-5,1.8-9.9,3.4-14.5,4.7-4.6,1.3-8.1,2-10.4,2s-4.7-.8-6.3-2.3c-1.5-1.5-2.3-2.7-2.3-3.4s0-.9.1-1.1c0-.2.2-.4.3-.6,0-.2.2-.5.4-1,.2-.5.4-1.3.6-2.4.6-2.5,1.1-5.6,1.7-9.5.6-3.9,1.1-8.7,1.6-14.5.5-5.8.9-12.8,1.3-21,.4-8.2.8-18.1,1.1-29.4.2-8.9.3-17.7.4-26.3,0-8.6.2-16.7.3-24.3,0-7.6.1-14.5.1-20.9v-16.1c0-9.1-.5-16.2-1.4-21.3-1-5.1-2-8.4-3.1-10-1.3-1.9-3.2-2.9-5.5-3-2.4,0-4-.2-5-.4-.2-1.7,0-3.2.3-4.5.4-1.1.9-2.2,1.7-3.1.8-.9,2.2-1.4,4.3-1.4,3.4,0,7.4,0,11.9-.1,4.5,0,9.3-.3,14.2-.6,4.9-.3,9.8-.7,14.5-1.1,4.7-.5,8.9-1.1,12.5-1.8,1.1-.2,1.8.1,1.8,1,0,.9,0,2.3-.4,4.4-.2,1.1-.7,1.8-1.6,2.1-.9.3-1.8.4-2.8.4s-2,0-2.8.1c-.9,0-1.5.5-1.8,1.3-.4,1-.9,2.2-1.4,3.7-.6,1.5-1,3.7-1.4,6.5-.6,3.8-1.1,8.9-1.7,15.2-.6,6.4-1.1,13.4-1.6,21.2-.5,7.8-1,15.9-1.4,24.5-.5,8.5-.9,16.8-1.3,24.7-.4,8-.7,15.4-.9,22.2-.2,6.8-.3,12.4-.3,16.8,5.5,0,11.4-1.3,17.8-4,6.3-2.7,12.2-6.3,17.6-10.8,5.4-4.5,9.9-9.9,13.5-16.1,3.6-6.2,5.4-12.7,5.4-19.8s-1.8-8.2-5.4-8.2-5.8.4-8.2,1.3c-2.5.9-4.2,1.3-5.1,1.3-2.8,0-4.5-.8-4.8-2.3,0-1.1.5-2.4,1.4-3.8.9-1.4,1.9-2.3,2.8-2.7,4,0,8.5-.2,13.5-.6,5-.4,10.1-.9,15.2-1.6,5.1-.7,10-1.4,14.8-2.1,4.7-.8,8.7-1.4,11.9-2,.9.4,1.4,1,1.4,1.7,0,1.7-1.6,5.4-4.7,11.1-3.1,5.7-7.3,11.9-12.5,18.8-5.2,6.8-11.1,13.5-17.8,19.9-6.6,6.4-13.5,11.3-20.5,14.5,2.1,1.3,4.8,3.8,8.2,7.4,3.4,3.6,7.2,7.8,11.2,12.5,4.1,4.7,8.4,9.7,12.9,14.8,4.5,5.1,9.2,9.8,13.9,14.1,4.7,4.3,9.3,7.8,13.8,10.5,4.5,2.8,8.7,4.1,12.7,4.1s5.1-.3,6.7-.9c1.6-.6,3.3-1.3,5-2.3.9.6,1.4,1.2,1.4,2,0,1.5-.7,3-2.1,4.4-1.4,1.4-4.6,2.9-9.5,4.4-3.2,1-6.9,2.2-11.1,3.8-4.2,1.6-8.2,3.1-12.1,4.5-3.9,1.4-7.3,2.6-10.2,3.6-2.9.9-4.8,1.3-5.5,1.1-1.5-.4-3.9-2.2-7.3-5.5-3.3-3.3-7.1-7.4-11.4-12.2-4.3-4.8-8.8-10.1-13.6-15.9-4.8-5.8-9.6-11.2-14.2-16.4-4.6-5.1-9-9.7-12.9-13.6s-7.3-6.6-10-8h-2.3Z"/>
  </g>
  <g>
    <path class="st0" d="M867.9,551.5c-2.7,3-6.2,6.4-10.7,10.1-4.5,3.7-9.6,7.2-15.4,10.5-5.8,3.3-12,6.1-18.8,8.4-6.7,2.3-13.7,3.4-20.9,3.4-13.1,0-24.9-1.6-35.5-4.8-10.6-3.2-19.7-8-27.3-14.4-7.6-6.3-13.5-14.3-17.6-23.7-4.2-9.5-6.3-20.5-6.3-33s1.1-19.5,3.3-29c2.2-9.5,4.9-18.4,8.1-26.9,3.2-8.4,6.7-16.2,10.5-23.3,3.8-7.1,7.4-13.3,10.8-18.6,3.4-5.3,6.3-9.5,8.8-12.7,2.5-3.1,4-5,4.5-5.5-13.5-.9-23.8-.4-31.1,1.7-7.3,2.1-12,4.9-14.1,8.5-1.1,2.1-2.7,2.8-4.5,2.3-1.9-.6-2.3-3-1.1-7.4.9-3.4,1.9-6.7,3-9.8,1-3.1,3.1-5.5,6.1-7.3,1.1-.8,2.4-1.3,3.7-1.7,1.3-.4,3-.7,5-.9,2-.2,4.4-.3,7.3-.3h10.8c8.3,0,15.2,0,20.5-.1,5.3,0,10.6-.4,15.9-1,.2.2.3.8.3,1.8v2.1c-2.7,1.7-5.6,5.9-9,12.5-3.3,6.6-6.5,15-9.7,25-3.1,10-5.7,21.6-7.8,34.5-2.1,13-3.1,26.9-3.1,41.7s1.8,24.9,5.4,34.3c3.6,9.4,8.4,17,14.4,22.9,6,5.9,12.7,10.2,20.2,12.9,7.5,2.8,15.2,4.1,23.2,4.1s17.8-2.2,24.3-6.7c6.5-4.5,11.8-9.9,15.8-16.2,4-6.3,6.9-13.1,8.7-20.2,1.8-7.1,2.7-13.3,2.7-18.6,0-26,0-46.8.3-62.4.2-15.6,0-27.8-.3-36.5-.4-7-1-12.1-1.7-15.4-.8-3.2-1.9-5.5-3.4-6.8-.6-.6-1.7-.9-3.3-.9s-3.4,0-5.3.1c-1.9,0-3.8.3-5.8.6-2,.3-3.7.5-5,.7-1.9.2-3.3-.2-4.1-1.3-.9-1-1.3-2.2-1.3-3.4s.3-2.4,1-3.4c.7-1,1.6-1.6,2.7-1.6,4,0,7.5,0,10.5.1,3,0,6,.2,8.8.3,2.8,0,5.8.1,9,.1h10.7c9.9-.2,17.4-.4,22.7-.7,5.3-.3,9.6-.7,12.8-1.3,2.3-.4,3.6.4,4.1,2.4.5,2,.5,3.6.1,4.7-.2.6-.9,1-2.1,1.3-1.2.3-2.6.6-4.1,1-1.5.4-2.9.8-4.3,1.3-1.3.5-2.2,1.1-2.6,1.8-1.3,2.7-2.3,7.4-3,14.2-.7,6.8-1.2,14.9-1.7,24.2-.5,9.3-.8,19.5-.9,30.6,0,11.1-.2,22.2-.4,33.4,0,15.7,0,28.4.3,38.1.2,9.7.3,17.6.4,23.7,0,6.2.2,11.2.4,15.1.2,3.9.3,7.8.3,11.8s-1.4,7.7-4.1,12.2c-2.8,4.5-6.4,9.2-10.8,13.9-4.5,4.7-9.5,9.4-15.1,13.9-5.6,4.5-11.3,8.6-17.1,12.1-5.8,3.5-11.4,6.3-16.8,8.5-5.4,2.2-10,3.3-13.8,3.3-8.5,0-17.4-.7-26.6-2-9.2-1.3-18.1-2.8-26.7-4.5-8.6-1.7-16.6-3.3-23.9-4.7-7.3-1.4-13.3-2.1-18.1-2.1s-6.3.3-9.1,1c-2.8.7-4.4,1.8-4.5,3.6-.4,1.5-1.1,1.8-2.1.9-1-1-1.6-1.8-1.6-2.6,0-1.9,1.5-4.4,4.4-7.4,2.9-3,6.2-6,9.8-8.8,3.6-2.8,7-5.3,10.2-7.3,3.2-2,5-3,5.4-3,6.3.4,13.7,1.5,22.5,3.3,8.7,1.8,17.8,3.8,27.2,6,9.4,2.2,18.7,4.1,28,5.8,9.3,1.7,17.5,2.6,24.7,2.6s10.7-1.7,14.5-5c3.8-3.3,6-7.7,6.5-13.2.2-1.9.4-5.3.6-10.1.2-4.8.4-10,.6-15.5.2-5.5.3-10.8.4-15.9,0-5.1.1-9,.1-11.7Z"/>
    <path class="st0" d="M1057,547.2c-2.1,2.3-5.3,5.4-9.7,9.4-4.4,4-9.6,8-15.8,11.9-6.2,4-13,7.4-20.6,10.2-7.6,2.8-15.6,4.3-24.2,4.3s-15.4-1.2-22.7-3.6-14-6-19.9-10.8c-5.9-4.8-10.6-11-14.1-18.5-3.5-7.5-5.3-16.4-5.3-26.9s.6-15.9,1.7-22c1.1-6.2,2.7-11.6,4.5-16.2,1.9-4.6,4-8.6,6.4-11.9,2.4-3.3,4.8-6.3,7.3-9,3-3.4,6.7-6.6,11.1-9.7,4.4-3,9.1-5.8,14.1-8.2,5-2.5,10.3-4.4,15.9-5.8,5.6-1.4,11.2-2.1,16.9-2.1,10.2,0,18.2,1.7,24,5.1,5.8,3.4,8.7,8.2,8.7,14.2s-1.1,7.3-3.4,10.5c1.9-.6,4.3-1.5,7.3-2.8,2.9-1.3,5.9-2.7,9-4.1,3-1.4,5.7-2.7,8.1-3.8,2.4-1.1,3.9-2,4.7-2.6.4-.4.8-.5,1.3-.4.5,0,.7.4.7,1,0,2.5-.5,4.5-1.4,6.1-1,1.6-2.1,2.9-3.4,3.8-3,1.9-7.4,4.3-13.1,7.1s-12,5.8-18.9,9c-6.9,3.1-14.1,6.3-21.5,9.4s-14.4,6.1-20.9,9c-6.5,2.8-12.2,5.4-17.1,7.5-4.8,2.2-8.1,3.7-9.8,4.7,0,6.4,1.3,12.5,3.8,18.1,2.6,5.6,6.1,10.5,10.7,14.6,4.5,4.2,10,7.4,16.4,9.8,6.3,2.4,13.3,3.6,20.9,3.6s13-.7,18.5-2.1c5.5-1.4,10.1-3,13.9-4.8,3.8-1.8,6.8-3.4,9-4.8,2.2-1.4,3.4-2.1,3.6-2.1.8,0,1.5.3,2.3,1,.8.7,1.1,1.4,1.1,2.1ZM956.9,503.7c3.2-1.1,6.9-2.5,10.9-4.1,4.1-1.6,8.1-3.4,11.9-5.3,3.9-1.9,7.4-3.7,10.7-5.4,3.2-1.7,5.7-3.2,7.4-4.5,3.4-2.5,5.1-6.6,5.1-12.5s-.4-4.6-1.3-7.1c-.9-2.5-2.1-4.7-3.8-6.7-1.7-2-3.8-3.6-6.3-4.8-2.5-1.2-5.2-1.8-8.2-1.8s-5.5.9-8.5,2.7c-3,1.8-5.9,4.7-8.5,8.8-2.7,4.1-4.9,9.5-6.7,16.2-1.8,6.7-2.7,14.9-2.7,24.6Z"/>
    <path class="st0" d="M1142.3,492.1c-1.1-5.9-2.5-11.1-4-15.8-1.5-4.6-3.4-8.5-5.7-11.7-2.3-3.1-5-5.5-8.2-7.1-3.2-1.6-7.2-2.4-11.9-2.4s-8,.8-11.5,2.3c-3.5,1.5-6.5,3.3-9.1,5.4-2.6,2.1-4.5,4.2-6,6.3-1.4,2.1-2.2,3.7-2.4,4.8-.2,1.5-1,2.3-2.6,2.3-2.7,0-5.1-.9-7.4-2.8-2.3-1.9-3.4-4.2-3.4-6.8s.2-2.7.6-3.4c4.4-2.5,9.7-5.1,15.9-8,6.3-2.8,12.7-5.5,19.5-8,6.7-2.5,13.4-4.5,20-6.1,6.6-1.6,12.6-2.4,17.9-2.4,8,0,14.1,1.1,18.3,3.4,4.3,2.3,7.4,5.5,9.5,9.7,2.1,4.2,3.4,9.1,3.8,14.6.5,5.6.9,11.6,1.3,18.1.6,9.7,1.3,19,2.3,28,.9,9,2.4,17,4.3,23.9,1.9,6.9,4.3,12.5,7.3,16.8,2.9,4.3,6.6,6.4,10.9,6.4s4.4-.4,6.8-1.1c2.5-.8,4.8-1.7,7.1-2.7,2.3-1,4.3-2.1,6.1-3.1,1.8-1,3-1.8,3.6-2.1,1.7,0,2.7.9,3.1,2.6,0,1-.2,1.8-.6,2.6-.4.4-1.8,1.3-4.3,2.8-2.5,1.5-5.5,3.3-9.1,5.4-3.6,2.1-7.6,4.3-11.9,6.7-4.4,2.4-8.7,4.6-12.9,6.7-4.3,2.1-8.2,3.8-11.8,5.1-3.6,1.3-6.4,2-8.5,2s-4.6-1-6.4-3c-1.8-2-3.4-4.6-4.7-8-1.3-3.3-2.5-7.2-3.4-11.5-1-4.4-1.8-8.9-2.6-13.6-3.4,2.8-7.8,6.2-13.1,10.1-5.3,3.9-11.1,7.5-17.3,10.9s-12.7,6.3-19.2,8.7c-6.5,2.4-12.8,3.6-18.9,3.6s-9.6-.8-13.4-2.4c-3.8-1.6-7-3.7-9.5-6.4-2.6-2.7-4.5-5.7-5.7-9.2-1.2-3.5-1.8-7.2-1.8-10.9,0-6.1,1.8-11,5.5-14.9,3.7-3.9,9.4-7.9,17.2-12.1,3.6-1.9,8.6-4.4,15.1-7.5,6.4-3.1,13-6.3,19.8-9.5,6.7-3.2,13-6.3,18.8-9.2,5.8-2.9,10-5.3,12.7-7ZM1150.5,536.1c-.6-3.2-1.1-6.7-1.7-10.5-.6-3.8-1.1-7.4-1.7-10.8-.6-3.4-1.1-6.3-1.6-8.8-.5-2.5-.8-4.1-1-4.8-3,1.1-6.4,2.5-10.2,4-3.8,1.5-7.6,3.2-11.4,5-3.8,1.8-7.4,3.6-10.8,5.4-3.4,1.8-6.3,3.5-8.5,5-4.4,2.8-7.7,5.7-10,8.5-2.3,2.8-3.4,6.3-3.4,10.2s1.6,10.3,4.8,14.5c3.2,4.2,8.2,6.3,15.1,6.3s7.3-.7,11.2-2c3.9-1.3,7.5-2.8,10.8-4.5,3.3-1.7,6.2-3.4,8.7-5.1,2.5-1.7,4.2-3,5.1-4,1.5-1.5,2.7-2.8,3.6-3.8.9-1,1.2-2.5,1-4.4Z"/>
    <path class="st0" d="M1258.3,469.9c3.8-3.4,8.1-7,12.8-10.7,4.7-3.7,9.7-7.1,14.9-10.2,5.2-3.1,10.7-5.7,16.3-7.7,5.7-2,11.5-3,17.3-3s13.2,1.1,19.2,3.3c6,2.2,11.2,5.4,15.8,9.5,4.5,4.2,8.1,9.1,10.8,14.9,2.7,5.8,4,12.3,4,19.5,0,14.6-2.5,28-7.5,40.2-5,12.2-10.9,22.9-17.6,32.1-6.7,9.2-13.4,16.8-20,22.9-6.6,6.1-11.6,10-14.8,11.9-1,.6-1.9.4-2.8-.6-1-1-1-2,0-3.1,1.5-1.1,3.8-3.9,7-8.4,3.1-4.5,6.3-10.1,9.5-16.9,3.2-6.8,6.1-14.6,8.5-23.3,2.5-8.7,3.7-18.1,3.7-28.2s-1-15.7-3-22.2c-2-6.4-4.7-11.8-8.1-16.2-3.4-4.4-7.3-7.7-11.8-10-4.5-2.3-9.2-3.4-14.4-3.4s-7,.5-10.8,1.6c-3.8,1-7.3,2.5-10.5,4.4-3.4,2.1-6.7,4.6-10,7.7-3.2,3-5.6,6.2-7.1,9.4-.4.8-.7,1.5-1,2.1-.3.7-.6,1.6-.9,2.8-.3,1.2-.6,2.8-.9,4.7-.3,1.9-.5,4.5-.7,7.7-.6,5.5-1,10.9-1.3,16.1-.3,5.2-.4,11.4-.4,18.6s.6,16.4,1.7,21.5c1.1,5,4.5,7.9,10,8.7.6,0,1.2,0,2-.1.8,0,1.6-.2,2.6-.4.8-.2,1.7-.5,2.8-.9.6,0,1,.3,1.3.9.3.6.4,1.1.4,1.7s-1,1.4-3.1,2.6c-2.1,1.1-4.7,2.3-8,3.6-3.2,1.2-6.8,2.5-10.7,3.7-3.9,1.2-7.5,2.4-10.9,3.6-3.6.9-6.7,1.8-9.2,2.6-2.6.8-4.3,1.1-5.3,1.1-5.7,0-8.5-2.2-8.5-6.5s.5-2.7,1.4-5.4c.9-2.7,1.7-6.7,2.3-12.2.8-8,1.5-16.7,2.3-26.3.8-9.6,1.4-19.2,1.8-28.9.5-9.7.9-19.1,1.1-28.4.3-9.3.4-17.6.4-25,0-13.6-.2-25.2-.7-34.7-.5-9.5-.9-16.2-1.3-20.2-.6-4.9-1.1-8.2-1.7-9.8-.6-1.6-1.2-3.1-2-4.4-1-1.7-2.1-2.9-3.6-3.6-1.4-.7-2.8-1.1-4-1.3-1.2-.2-2.3-.2-3.1-.1-.9,0-1.3,0-1.3-.4,0-2.7.9-4.8,2.6-6.5s4-2.6,6.8-2.6c5.5,0,11.2,0,17.1-.3,5.9-.2,11.3-.5,16.2-.9,4.2-.4,8-.9,11.5-1.7,3.5-.8,5.8-1.3,7-1.7,1.5-.2,2.3,0,2.4.7,0,.7.1,1.8.1,3.6s-.5,2-1.4,2.6c-1,.6-2,1-3.1,1.4-1.1.4-2.2.7-3.3,1-1,.3-1.8.7-2.1,1.3-.8,1.1-1.5,4.6-2.3,10.5-.8,5.9-1.5,13.3-2.1,22.3-.7,9-1.2,19-1.7,30-.5,11-.8,22.1-1,33.3l.3.3Z"/>
  </g>
</svg>