<?xml version="1.0" encoding="UTF-8"?>
<svg id="Layer_1" xmlns="http://www.w3.org/2000/svg" version="1.1" viewBox="0 0 2160 1440">
  <!-- Generator: Adobe Illustrator 30.3.0, SVG Export Plug-In . SVG Version: 2.1.3 Build 182)  -->
  <defs>
    <style>
      .st0 {
        fill: #231f20;
      }
    </style>
  </defs>
  <path class="st0" d="M743.4,1118.3c-52.6,0-84.1-30.5-84.1-60s13.9-37.5,40.3-49.5c22.5-10.2,52.4-15.8,84.4-15.8s6.7.1,10,.3c1.9-13.8,2.8-28.5,2.8-43.8s-.2-20.8-.4-30.4c-13.8,27.6-38.4,63.9-73.3,63.9s-32.9-5.7-44.7-15.9c-13.5-11.7-20.6-28.4-20.6-48.3s8.8-57.8,17.4-89.3c8.2-30.3,16.7-61.5,16.7-84.2s-8.8-25.8-13.6-25.8c-16.8,0-41.6,17.1-63.3,43.6-22.5,27.5-36.5,58.5-36.5,81.1s6.5,17.8,9,17.8c18.5,0,51.6-34.5,59.2-45.9,2.4-3.6,5.7-8.5,11.6-8.5s11.7,5.8,11.7,13.6-9.6,23.6-20.9,38c-17.1,21.9-36.2,33.5-55.1,33.5-26.8,0-59.2-26.7-59.2-60s19.2-64.5,51.2-93.9c30.7-28.2,67.4-45.7,95.7-45.7s55,19.7,55,51.5-8.5,64.8-16.8,98.7c-6.7,27.7-13.1,53.8-13.1,71.4,0,31.4,13,35.4,24.3,35.4,22.8,0,61.5-79,64.9-122.2,3.4-42.5,3.8-65,3.8-81.4s4.3-18.2,12.1-25.9c6.9-6.9,15.3-11.1,21.8-11.1s15.5,1.7,15.5,17.4-.8,8-2.4,18.9c-2.8,19-7.6,50.7-7.6,74.1s.5,28.3,1,44.1c.8,22.1,1.7,47.2,1.7,84.6s-1.7,35-5,52.4c21.1,8,33,20.7,33,35.3,0,22.4-20.5,38.1-31.6,38.1s-11.3-4.8-11.3-10.9.9-4.2,2-6.7c1.6-3.5,3.7-8.2,3.7-14s-1.4-6.9-4.1-10.1c-17.4,53.7-48.9,85.3-85.3,85.3ZM784.4,1019.1c-44.9,0-82.9,21.3-82.9,46.5s18.9,25.1,35,25.1c31.9,0,46.7-45.2,52.7-71.5-1.5,0-3.1-.1-4.8-.1Z"/>
</svg>