<?xml version="1.0" encoding="UTF-8"?>
<svg xmlns="http://www.w3.org/2000/svg" viewBox="0 0 2160 1440">
  <path d="M 1258.200 470.100 L 1259.921 416.458 L 1263.128 381.220 L 1264.364 375.136 L 1265.456 373.163 L 1274.537 369.150 L 1274.800 363.800 L 1273.667 363.037 L 1253.900 366.500 L 1218.595 367.867 L 1214.465 369.700 L 1211.574 374.005 L 1211.512 377.150 L 1217.123 377.642 L 1221.588 380.025 L 1225.200 386.600 L 1227.014 397.616 L 1228.465 422.551 L 1228.701 469.004 L 1225.996 528.634 L 1224.107 551.293 L 1218.400 554.475 L 1206.170 559.227 L 1199.894 559.471 L 1194.204 556.970 L 1189.423 551.066 L 1184.438 539.571 L 1180.719 523.791 L 1178.264 503.079 L 1175.408 464.366 L 1173.223 455.080 L 1169.750 448.443 L 1164.070 443.141 L 1156.884 440.042 L 1147.647 438.783 L 1139.672 438.866 L 1131.184 440.003 L 1110.884 445.498 L 1082.600 457.091 L 1070.700 463.200 L 1070.137 465.070 L 1070.569 469.393 L 1072.694 472.669 L 1077.460 475.658 L 1081.953 476.052 L 1083.234 474.892 L 1085.900 469.100 L 1088.822 465.600 L 1093.358 461.684 L 1099.140 458.248 L 1104.493 456.137 L 1110.259 455.166 L 1116.637 455.327 L 1122.867 456.818 L 1129.927 461.501 L 1134.911 468.296 L 1138.825 477.980 L 1142.400 492.600 L 1130.839 499.027 L 1071.953 528.072 L 1059.859 536.834 L 1056.503 540.822 L 1054.680 544.493 L 1053.460 544.384 L 1042.117 550.714 L 1032.404 554.533 L 1021.947 557.117 L 1012.145 558.048 L 1001.631 557.736 L 991.305 555.690 L 981.415 551.677 L 972.780 545.930 L 966.160 539.103 L 960.700 530.100 L 957.764 520.872 L 956.900 512.000 L 1026.200 481.400 L 1052.221 468.751 L 1058.200 465.300 L 1060.563 462.996 L 1062.529 459.215 L 1062.837 454.675 L 1061.612 454.413 L 1048.200 461.200 L 1031.900 468.100 L 1034.157 464.612 L 1035.092 461.322 L 1035.273 456.611 L 1034.333 452.007 L 1030.037 445.872 L 1022.044 441.246 L 1011.716 438.822 L 997.871 438.462 L 985.700 440.400 L 972.475 444.932 L 959.660 451.810 L 949.257 459.461 L 939.704 469.900 L 933.017 480.306 L 928.254 492.979 L 925.438 507.555 L 924.728 525.426 L 926.234 538.728 L 928.604 546.799 L 932.344 554.617 L 937.350 561.878 L 942.650 567.371 L 949.704 572.649 L 957.507 576.875 L 966.719 580.244 L 975.788 582.244 L 985.634 582.994 L 995.764 582.426 L 1005.356 580.489 L 1014.634 577.250 L 1025.093 572.300 L 1035.102 566.149 L 1043.847 559.598 L 1053.363 550.921 L 1053.750 558.325 L 1055.824 565.561 L 1058.829 570.620 L 1063.530 575.404 L 1069.363 578.890 L 1076.137 581.100 L 1084.617 581.691 L 1093.000 580.800 L 1106.144 576.741 L 1121.800 569.400 L 1136.018 560.697 L 1152.200 548.400 L 1155.236 563.955 L 1158.200 573.500 L 1161.845 580.226 L 1165.987 583.750 L 1169.300 584.500 L 1172.524 584.094 L 1183.892 580.052 L 1201.621 571.177 L 1223.424 558.646 L 1221.799 569.233 L 1219.763 574.789 L 1219.799 579.335 L 1220.848 581.524 L 1222.804 583.029 L 1226.836 583.961 L 1230.150 583.750 L 1262.567 573.607 L 1271.481 569.770 L 1275.179 567.186 L 1274.900 565.100 L 1273.600 564.200 L 1266.200 565.600 L 1261.407 564.100 L 1258.059 561.200 L 1256.200 556.900 L 1254.679 542.684 L 1254.620 523.900 L 1256.513 496.363 L 1257.800 488.300 L 1260.525 481.801 L 1263.870 477.059 L 1269.849 471.303 L 1276.800 466.300 L 1283.600 463.063 L 1290.912 460.933 L 1303.144 460.670 L 1309.774 462.463 L 1315.764 465.614 L 1320.963 469.894 L 1325.350 475.123 L 1329.501 482.348 L 1332.400 489.900 L 1334.288 497.441 L 1335.258 506.096 L 1334.668 525.261 L 1330.815 543.393 L 1325.813 557.655 L 1319.844 570.303 L 1313.700 580.500 L 1306.138 589.708 L 1306.138 591.248 L 1307.377 592.600 L 1309.500 592.600 L 1324.939 580.105 L 1337.819 566.207 L 1349.555 550.012 L 1359.397 531.517 L 1365.573 514.949 L 1368.788 497.720 L 1369.178 480.476 L 1366.133 467.676 L 1362.573 460.768 L 1358.594 455.295 L 1353.869 450.460 L 1347.638 445.890 L 1340.668 442.328 L 1334.084 440.156 L 1318.633 438.309 L 1306.114 440.115 L 1291.860 445.782 L 1275.639 455.784 L 1258.200 470.100 Z M 1150.494 538.382 L 1149.500 540.700 L 1144.933 545.433 L 1135.541 551.745 L 1118.875 558.961 L 1111.695 560.085 L 1102.536 559.032 L 1096.204 555.195 L 1092.075 548.395 L 1090.200 539.300 L 1090.891 534.258 L 1093.002 529.881 L 1101.781 521.806 L 1121.160 511.031 L 1144.500 501.200 L 1150.494 538.382 Z M 956.900 503.700 L 957.872 487.960 L 960.215 477.015 L 964.164 466.718 L 969.422 458.796 L 974.800 454.200 L 981.552 451.608 L 988.930 452.300 L 995.719 456.019 L 999.512 460.440 L 1002.726 467.720 L 1002.537 476.240 L 999.636 482.706 L 991.441 488.341 L 970.421 498.545 L 956.900 503.700 Z M 1092.700 273.100 L 1099.248 277.844 L 1107.199 285.686 L 1148.457 332.566 L 1156.721 341.001 L 1161.623 344.538 L 1167.600 343.600 L 1204.628 330.475 L 1209.558 328.073 L 1212.075 325.138 L 1212.600 322.900 L 1211.200 320.900 L 1204.151 323.806 L 1196.020 323.777 L 1188.710 321.109 L 1179.975 315.350 L 1164.583 301.328 L 1136.836 270.061 L 1126.800 260.700 L 1134.821 256.265 L 1143.460 249.724 L 1153.047 240.437 L 1161.529 230.816 L 1171.307 217.681 L 1178.289 206.220 L 1182.187 197.327 L 1182.137 195.737 L 1180.900 194.700 L 1150.377 199.289 L 1124.809 201.394 L 1121.534 206.090 L 1121.565 208.191 L 1122.763 209.213 L 1126.617 209.766 L 1134.422 207.588 L 1139.400 207.200 L 1142.400 207.748 L 1143.863 209.296 L 1144.763 213.747 L 1144.359 221.346 L 1143.037 227.040 L 1140.380 233.420 L 1131.434 246.039 L 1119.516 256.051 L 1111.856 260.459 L 1104.323 263.620 L 1097.668 265.401 L 1090.500 266.100 L 1093.522 192.307 L 1097.372 143.774 L 1098.630 136.455 L 1100.900 130.607 L 1108.670 129.067 L 1109.900 123.000 L 1109.678 122.296 L 1108.100 122.000 L 1084.038 124.709 L 1052.810 125.834 L 1050.700 127.000 L 1049.322 129.278 L 1048.700 134.600 L 1055.569 135.306 L 1059.498 138.479 L 1062.300 148.000 L 1063.590 162.301 L 1063.184 240.233 L 1062.039 281.178 L 1059.578 316.682 L 1057.718 328.883 L 1055.813 335.663 L 1057.285 338.938 L 1060.527 341.335 L 1063.411 342.051 L 1067.380 341.827 L 1081.900 337.938 L 1101.238 330.655 L 1110.700 325.100 L 1110.300 323.500 L 1109.000 322.500 L 1103.119 323.889 L 1097.650 323.186 L 1093.848 320.328 L 1091.550 316.037 L 1090.112 306.021 L 1090.700 273.100 L 1092.700 273.100 Z M 1043.868 208.389 L 1040.283 205.334 L 1034.974 202.804 L 1020.267 198.986 L 1005.364 198.006 L 991.635 199.500 L 976.643 203.399 L 963.464 209.280 L 951.303 217.543 L 941.084 227.898 L 932.570 240.561 L 927.176 252.641 L 924.844 264.817 L 924.401 282.158 L 926.130 295.904 L 930.374 308.891 L 937.077 320.006 L 945.431 328.572 L 955.507 334.982 L 968.233 339.400 L 982.903 341.241 L 996.663 340.312 L 1009.828 336.252 L 1024.776 329.222 L 1040.023 319.835 L 1056.300 307.500 L 1056.633 304.133 L 1055.804 302.830 L 1054.300 302.400 L 1046.831 307.836 L 1037.600 312.500 L 1029.774 314.763 L 1019.491 316.234 L 1003.570 316.156 L 990.390 313.131 L 977.997 306.707 L 968.236 297.507 L 961.766 286.643 L 958.411 277.898 L 957.040 271.584 L 956.705 252.926 L 959.237 236.833 L 961.575 230.006 L 964.795 223.704 L 968.647 218.549 L 972.230 215.327 L 977.823 212.457 L 984.100 211.500 L 991.876 212.265 L 1000.105 214.983 L 1006.863 218.758 L 1012.774 223.954 L 1016.016 228.737 L 1017.200 234.500 L 1018.467 235.433 L 1025.267 231.158 L 1035.438 221.626 L 1043.029 212.253 L 1044.400 209.700 L 1043.868 208.389 Z M 744.150 220.550 L 753.207 222.522 L 757.199 224.856 L 761.200 229.700 L 763.714 235.866 L 765.148 244.947 L 765.209 256.407 L 763.921 278.035 L 761.396 301.667 L 761.654 313.078 L 763.693 320.486 L 766.963 326.245 L 772.400 332.000 L 778.532 336.121 L 786.412 339.312 L 795.358 340.958 L 804.267 341.033 L 812.705 339.471 L 823.900 335.663 L 836.401 329.725 L 861.600 314.100 L 862.810 326.082 L 865.250 334.800 L 868.275 340.350 L 873.235 340.956 L 881.785 338.799 L 896.503 332.797 L 913.165 324.266 L 926.415 316.137 L 926.594 313.239 L 924.400 312.100 L 913.363 317.170 L 907.873 317.470 L 903.549 316.403 L 900.455 314.453 L 897.028 310.645 L 892.774 300.946 L 891.554 292.980 L 891.544 282.057 L 895.200 229.433 L 897.830 204.840 L 897.792 202.162 L 896.600 199.300 L 889.421 198.996 L 875.188 201.750 L 859.600 206.700 L 851.596 210.900 L 851.583 212.592 L 852.511 213.764 L 857.300 213.892 L 859.130 215.296 L 862.204 227.699 L 863.672 250.933 L 862.435 290.423 L 860.502 300.254 L 857.167 305.451 L 852.963 309.507 L 845.769 314.480 L 840.403 316.378 L 824.328 316.409 L 818.117 315.239 L 811.714 312.900 L 806.956 310.067 L 802.268 305.805 L 798.267 300.254 L 795.255 293.912 L 792.207 281.620 L 791.435 266.244 L 794.293 225.118 L 797.278 201.267 L 795.263 200.070 L 792.600 200.400 L 744.262 217.762 L 743.700 219.100 L 744.150 220.550 Z M 867.699 551.721 L 865.733 606.411 L 864.376 610.987 L 862.048 614.919 L 855.141 620.632 L 850.788 622.105 L 846.308 622.580 L 828.893 621.383 L 806.820 617.387 L 761.727 607.531 L 742.600 604.900 L 731.857 611.534 L 719.118 622.073 L 713.296 629.304 L 712.800 631.400 L 713.728 633.284 L 715.675 634.450 L 717.431 631.148 L 722.561 629.127 L 734.141 628.645 L 800.839 640.079 L 818.710 641.661 L 830.344 641.272 L 845.250 635.819 L 861.767 626.307 L 878.504 613.341 L 892.333 599.307 L 900.556 587.307 L 903.079 578.753 L 901.700 489.200 L 902.543 435.440 L 904.996 398.392 L 906.284 391.006 L 908.092 386.294 L 911.141 384.711 L 919.733 382.363 L 921.082 379.846 L 920.382 375.800 L 917.668 374.200 L 905.005 375.529 L 883.628 376.248 L 842.100 375.800 L 840.600 376.225 L 838.948 378.184 L 838.712 382.575 L 840.942 385.190 L 861.925 384.325 L 864.724 386.879 L 866.600 391.800 L 868.141 404.664 L 868.632 422.371 L 867.934 512.324 L 865.600 524.700 L 862.263 534.659 L 856.900 544.900 L 850.954 552.607 L 843.582 559.293 L 836.135 563.849 L 826.539 566.818 L 816.800 567.800 L 805.012 566.800 L 794.539 564.042 L 784.978 559.692 L 776.334 553.509 L 769.125 546.055 L 762.843 536.410 L 758.114 525.465 L 755.191 514.188 L 753.710 499.667 L 753.937 479.100 L 755.619 459.427 L 758.765 440.448 L 763.237 421.658 L 768.775 405.032 L 776.062 388.941 L 780.062 382.862 L 783.200 379.900 L 782.900 376.000 L 769.981 376.959 L 729.169 377.330 L 721.853 378.841 L 717.248 381.785 L 713.933 386.391 L 710.259 398.493 L 710.064 402.616 L 711.700 404.500 L 714.944 403.841 L 718.114 399.790 L 721.721 397.140 L 731.704 393.325 L 744.504 391.678 L 761.400 392.000 L 754.436 400.796 L 746.698 412.418 L 733.049 437.297 L 723.668 461.044 L 717.017 487.091 L 715.767 497.037 L 715.405 509.099 L 717.367 527.551 L 719.673 535.830 L 722.984 543.778 L 727.478 551.589 L 732.270 557.844 L 737.803 563.417 L 745.281 569.200 L 752.683 573.545 L 761.741 577.483 L 771.086 580.341 L 781.453 582.419 L 804.059 583.873 L 818.387 581.883 L 834.986 575.654 L 852.754 565.045 L 867.699 551.721 Z M 699.520 282.440 L 705.785 285.010 L 709.713 288.862 L 711.958 293.886 L 712.850 300.562 L 716.100 301.300 L 719.863 300.315 L 720.075 286.255 L 721.912 269.435 L 724.153 257.036 L 727.800 245.793 L 726.081 243.402 L 723.300 242.737 L 715.914 251.304 L 707.706 253.741 L 683.492 255.652 L 644.700 255.400 L 645.941 185.347 L 648.300 151.600 L 651.100 149.982 L 654.967 149.233 L 678.182 149.744 L 694.818 152.543 L 707.539 157.142 L 714.167 161.470 L 719.143 167.239 L 721.273 174.771 L 720.086 189.931 L 722.350 191.912 L 726.800 192.176 L 728.113 191.200 L 729.400 188.000 L 729.492 171.468 L 733.684 145.270 L 738.932 126.621 L 743.159 116.830 L 745.200 114.100 L 744.600 112.600 L 739.000 110.400 L 735.713 112.062 L 731.264 118.924 L 726.800 130.300 L 724.868 130.628 L 656.769 132.092 L 611.810 135.946 L 578.756 134.605 L 571.800 134.774 L 568.714 135.586 L 567.644 138.074 L 567.637 141.207 L 570.300 143.362 L 574.983 144.280 L 593.496 144.357 L 600.560 145.239 L 604.800 147.700 L 606.438 152.026 L 608.986 169.270 L 610.367 198.453 L 609.638 289.735 L 607.745 341.196 L 606.498 353.941 L 604.825 360.623 L 582.343 369.221 L 565.313 377.803 L 562.998 379.932 L 563.278 382.490 L 564.385 384.053 L 567.605 386.205 L 569.400 386.300 L 577.750 379.994 L 592.200 373.300 L 611.912 366.660 L 630.367 362.106 L 645.377 360.693 L 671.435 361.699 L 678.124 360.818 L 678.957 359.248 L 679.089 355.047 L 678.230 353.328 L 676.211 351.837 L 655.450 350.925 L 650.694 349.702 L 648.245 347.718 L 646.817 340.875 L 645.788 327.002 L 644.600 280.300 L 648.447 279.105 L 674.778 279.417 L 688.900 280.500 L 699.520 282.440 Z" fill="#231f20" fill-opacity="0.18" stroke="#231f20" stroke-width="2"/>
  <path d="M 1244.291 478.501 C 1246.530 478.130, 1253.171 478.654, 1257.727 476.275 C 1262.282 473.897, 1266.418 467.824, 1271.625 464.229 C 1276.831 460.634, 1282.967 456.939, 1288.966 454.704 C 1294.965 452.469, 1302.513 451.260, 1307.619 450.819 C 1312.724 450.379, 1315.777 451.138, 1319.601 452.063 C 1323.425 452.987, 1326.974 454.284, 1330.563 456.366 C 1334.152 458.448, 1338.562 462.033, 1341.135 464.555 C 1343.707 467.077, 1344.485 468.436, 1345.998 471.497 C 1347.510 474.559, 1349.281 479.097, 1350.208 482.923 C 1351.136 486.749, 1351.459 490.071, 1351.563 494.456 C 1351.668 498.840, 1351.571 503.643, 1350.834 509.228 C 1350.097 514.812, 1348.897 521.768, 1347.140 527.961 C 1345.384 534.155, 1342.602 541.075, 1340.295 546.389 C 1337.989 551.703, 1336.612 554.497, 1333.302 559.846 C 1329.991 565.195, 1324.595 573.380, 1320.434 578.485 C 1316.273 583.591, 1310.351 588.479, 1308.334 590.478 M 941.486 507.849 C 941.506 510.834, 941.219 521.107, 941.606 525.759 C 941.992 530.411, 942.743 532.597, 943.804 535.761 C 944.865 538.924, 946.636 542.273, 947.971 544.741 C 949.307 547.209, 949.808 548.320, 951.818 550.570 C 953.827 552.820, 955.857 555.564, 960.029 558.242 C 964.201 560.920, 971.440 564.767, 976.852 566.638 C 982.263 568.510, 986.424 569.300, 992.498 569.470 C 998.572 569.641, 1006.362 569.196, 1013.296 567.661 C 1020.230 566.126, 1027.519 563.596, 1034.103 560.260 C 1040.687 556.923, 1046.343 549.093, 1052.800 547.643 C 1059.256 546.194, 1069.503 550.911, 1072.843 551.564 M 941.486 507.849 C 941.996 504.383, 943.249 492.448, 944.546 487.049 C 945.843 481.650, 946.900 479.719, 949.267 475.454 C 951.633 471.190, 954.893 465.725, 958.745 461.463 C 962.597 457.201, 968.755 452.328, 972.380 449.881 C 976.006 447.435, 977.784 447.434, 980.499 446.784 C 983.213 446.134, 984.666 445.546, 988.669 445.983 C 992.671 446.419, 1000.764 448.270, 1004.514 449.401 C 1008.264 450.531, 1009.005 451.238, 1011.168 452.766 C 1013.331 454.295, 1016.471 455.778, 1017.492 458.570 C 1018.512 461.362, 1017.325 467.695, 1017.292 469.520 M 1072.843 551.564 C 1073.111 552.632, 1072.653 555.651, 1074.448 557.969 C 1076.244 560.287, 1079.967 563.746, 1083.617 565.472 C 1087.267 567.198, 1092.740 567.894, 1096.347 568.328 C 1099.955 568.761, 1101.047 568.825, 1105.262 568.073 C 1109.477 567.321, 1116.548 565.791, 1121.639 563.816 C 1126.730 561.840, 1130.905 559.442, 1135.806 556.220 C 1140.708 552.997, 1145.787 547.074, 1151.049 544.480 C 1156.312 541.887, 1164.661 541.296, 1167.383 540.659 M 1078.369 467.720 C 1080.493 466.051, 1085.822 460.608, 1091.110 457.704 C 1096.399 454.801, 1104.363 451.699, 1110.100 450.302 C 1115.838 448.904, 1120.671 449.015, 1125.535 449.317 C 1130.400 449.620, 1134.619 450.204, 1139.287 452.115 C 1143.954 454.026, 1150.530 457.128, 1153.540 460.782 C 1156.549 464.436, 1156.277 468.691, 1157.343 474.039 C 1158.408 479.388, 1159.502 489.736, 1159.934 492.875 M 1167.383 540.659 C 1168.627 544.414, 1171.912 559.023, 1174.847 563.186 C 1177.781 567.348, 1181.421 565.166, 1184.989 565.633 C 1188.556 566.100, 1192.723 566.269, 1196.253 565.989 C 1199.783 565.708, 1201.492 565.779, 1206.169 563.951 C 1210.846 562.123, 1218.719 556.270, 1224.315 555.020 C 1229.910 553.770, 1237.170 556.214, 1239.742 556.452 M 1072.843 551.564 C 1073.593 549.596, 1075.589 543.186, 1077.343 539.754 C 1079.097 536.321, 1079.980 534.350, 1083.367 530.971 C 1086.754 527.592, 1087.825 525.115, 1097.665 519.479 C 1107.505 513.843, 1132.031 501.588, 1142.409 497.154 C 1152.787 492.720, 1157.013 493.588, 1159.934 492.875 M 1017.292 469.520 C 1018.648 470.133, 1022.977 472.535, 1025.430 473.199 C 1027.883 473.862, 1027.129 475.246, 1032.011 473.502 C 1036.894 471.758, 1049.774 465.505, 1054.726 462.735 C 1059.679 459.965, 1060.558 457.855, 1061.724 456.880 M 941.486 507.849 C 944.280 507.849, 949.270 510.667, 958.253 507.850 C 967.235 505.033, 987.525 494.798, 995.379 490.946 C 1003.234 487.095, 1001.728 488.313, 1005.380 484.742 C 1009.032 481.171, 1015.307 472.057, 1017.292 469.520 M 1240.076 562.727 C 1243.106 563.824, 1253.559 568.360, 1258.256 569.309 C 1262.954 570.258, 1265.797 568.904, 1268.259 568.422 C 1270.721 567.939, 1272.235 566.747, 1273.030 566.412 M 1214.472 375.635 C 1215.114 375.167, 1216.118 372.943, 1218.324 372.825 C 1220.530 372.706, 1223.443 372.793, 1227.708 374.924 C 1231.973 377.054, 1241.212 383.829, 1243.913 385.610 M 1243.913 385.610 C 1246.938 382.921, 1257.338 372.684, 1262.061 369.475 C 1266.785 366.266, 1270.556 366.876, 1272.255 366.357 M 1239.742 556.452 C 1240.091 546.458, 1241.079 509.480, 1241.838 496.489 C 1242.596 483.497, 1243.882 481.499, 1244.291 478.501 M 1243.913 385.610 L 1244.291 478.501 M 1239.742 556.452 L 1240.076 562.727 M 1224.957 578.209 L 1240.076 562.727 M 1159.934 492.875 L 1167.383 540.659 M 1118.681 274.762 C 1119.002 272.697, 1119.737 265.297, 1120.606 262.374 C 1121.474 259.452, 1121.642 259.150, 1123.892 257.226 C 1126.141 255.302, 1130.310 254.194, 1134.103 250.828 C 1137.897 247.463, 1143.185 241.757, 1146.655 237.035 C 1150.124 232.313, 1152.947 226.663, 1154.922 222.495 C 1156.896 218.328, 1157.904 213.776, 1158.501 212.032 M 1123.521 207.111 C 1125.057 206.575, 1129.492 204.509, 1132.737 203.896 C 1135.983 203.282, 1140.406 203.240, 1142.995 203.431 C 1145.585 203.623, 1145.692 203.612, 1148.276 205.045 C 1150.861 206.479, 1156.797 210.868, 1158.501 212.032 M 1118.681 274.762 C 1126.567 283.279, 1153.249 316.818, 1165.999 325.863 C 1178.750 334.907, 1188.517 328.835, 1195.184 329.029 C 1201.850 329.223, 1203.516 328.001, 1205.998 327.025 C 1208.480 326.050, 1209.397 323.818, 1210.077 323.176 M 1075.801 322.174 C 1077.459 322.841, 1082.146 325.225, 1085.752 326.177 C 1089.357 327.129, 1093.693 328.103, 1097.436 327.886 C 1101.179 327.668, 1106.414 325.375, 1108.210 324.873 M 1050.689 132.135 C 1051.503 131.807, 1053.002 129.969, 1055.571 130.167 C 1058.141 130.366, 1062.126 131.218, 1066.108 133.326 C 1070.091 135.435, 1077.240 141.235, 1079.466 142.817 M 1079.466 142.817 C 1082.317 140.322, 1092.264 130.664, 1096.575 127.849 C 1100.887 125.033, 1103.874 126.244, 1105.334 125.923 M 1076.698 269.997 C 1079.352 269.878, 1085.622 268.486, 1092.619 269.280 C 1099.616 270.074, 1114.337 273.848, 1118.681 274.762 M 1061.010 335.295 C 1062.057 334.715, 1064.827 334.002, 1067.292 331.815 C 1069.757 329.628, 1074.383 323.780, 1075.801 322.174 M 1158.501 212.032 L 1180.371 196.588 M 1076.698 269.997 L 1079.466 142.817 M 1075.801 322.174 L 1076.698 269.997 M 1022.862 214.141 C 1021.071 213.308, 1016.819 210.528, 1012.116 209.143 C 1007.412 207.757, 1000.642 206.006, 994.639 205.828 C 988.636 205.650, 981.151 206.566, 976.096 208.076 C 971.042 209.586, 968.695 210.719, 964.313 214.889 C 959.930 219.059, 953.420 226.862, 949.801 233.094 C 946.183 239.327, 944.107 245.484, 942.604 252.285 C 941.101 259.086, 940.510 267.217, 940.782 273.900 C 941.054 280.582, 942.313 286.651, 944.236 292.382 C 946.159 298.113, 950.009 304.647, 952.319 308.288 C 954.628 311.929, 955.552 312.149, 958.093 314.231 C 960.635 316.313, 963.214 318.729, 967.568 320.780 C 971.921 322.831, 978.834 325.454, 984.215 326.538 C 989.596 327.623, 994.018 327.725, 999.854 327.286 C 1005.691 326.848, 1012.523 325.833, 1019.234 323.908 C 1025.945 321.983, 1034.493 318.493, 1040.119 315.735 C 1045.746 312.978, 1050.599 309.223, 1052.994 307.364 C 1055.389 305.505, 1054.241 305.045, 1054.490 304.581 M 777.277 224.017 C 777.594 227.469, 779.103 234.983, 779.178 244.730 C 779.253 254.476, 777.762 273.193, 777.726 282.498 C 777.689 291.802, 778.181 295.529, 778.959 300.556 C 779.737 305.583, 780.916 309.594, 782.393 312.658 C 783.869 315.721, 784.276 316.744, 787.816 318.936 C 791.356 321.129, 797.959 324.638, 803.632 325.813 C 809.306 326.988, 815.511 326.719, 821.857 325.985 C 828.203 325.251, 834.772 324.461, 841.710 321.409 C 848.649 318.357, 857.686 310.249, 863.488 307.672 C 869.290 305.095, 874.351 306.237, 876.523 305.949 M 880.689 319.307 C 882.897 319.863, 889.990 322.122, 893.934 322.646 C 897.877 323.170, 900.998 322.768, 904.349 322.451 C 907.700 322.133, 910.681 322.054, 914.041 320.740 C 917.402 319.426, 922.767 315.594, 924.513 314.565 M 853.832 211.764 C 854.699 211.550, 857.354 210.569, 859.033 210.482 C 860.711 210.396, 860.667 209.785, 863.904 211.247 C 867.140 212.708, 876.028 217.917, 878.452 219.251 M 876.523 305.949 C 876.905 296.434, 878.493 263.308, 878.814 248.858 C 879.136 234.409, 878.513 224.186, 878.452 219.251 M 777.277 224.017 C 779.634 220.939, 788.519 208.993, 791.418 205.551 C 794.317 202.109, 794.129 203.728, 794.671 203.363 M 745.864 219.223 C 748.177 219.128, 754.506 217.852, 759.741 218.651 C 764.977 219.450, 774.354 223.123, 777.277 224.017 M 878.452 219.251 L 894.697 201.772 M 876.523 305.949 L 880.689 319.307 M 871.208 336.952 L 880.689 319.307 M 712.851 401.849 C 714.003 399.935, 717.077 393.078, 719.762 390.363 C 722.448 387.649, 724.954 386.595, 728.962 385.561 C 732.970 384.527, 738.418 384.382, 743.808 384.161 C 749.198 383.940, 757.315 383.989, 761.301 384.235 C 765.287 384.482, 766.734 383.905, 767.723 385.639 C 768.712 387.373, 769.587 389.005, 767.236 394.640 C 764.886 400.276, 757.414 411.134, 753.619 419.452 C 749.824 427.771, 746.974 436.524, 744.466 444.553 C 741.958 452.581, 740.086 460.215, 738.570 467.624 C 737.055 475.032, 735.983 482.329, 735.373 489.004 C 734.762 495.678, 734.341 500.804, 734.907 507.671 C 735.474 514.538, 736.930 524.005, 738.774 530.204 C 740.618 536.403, 743.174 540.577, 745.971 544.866 C 748.769 549.154, 751.865 552.587, 755.558 555.933 C 759.252 559.279, 763.229 562.285, 768.131 564.944 C 773.032 567.603, 779.360 570.179, 784.968 571.885 C 790.576 573.592, 796.134 574.713, 801.780 575.182 C 807.427 575.652, 812.582 575.922, 818.847 574.700 C 825.112 573.479, 833.333 570.914, 839.368 567.855 C 845.403 564.796, 850.933 560.087, 855.059 556.348 C 859.185 552.609, 861.710 547.856, 864.125 545.421 C 866.539 542.986, 866.514 542.993, 869.546 541.736 C 872.579 540.479, 880.192 538.522, 882.321 537.879 M 715.634 632.310 C 715.711 631.688, 714.664 629.975, 716.098 628.580 C 717.532 627.185, 721.069 625.403, 724.240 623.941 C 727.411 622.479, 731.604 620.801, 735.124 619.806 C 738.645 618.812, 733.746 616.442, 745.363 617.973 C 756.979 619.504, 791.198 626.738, 804.822 628.995 C 818.446 631.251, 820.558 631.499, 827.106 631.511 C 833.654 631.523, 838.992 630.282, 844.110 629.066 C 849.228 627.851, 854.238 626.021, 857.814 624.217 C 861.389 622.413, 863.154 620.678, 865.563 618.243 C 867.971 615.809, 869.122 616.028, 872.264 609.608 C 875.406 603.188, 882.242 589.298, 884.416 579.722 C 886.590 570.146, 885.657 559.128, 885.308 552.154 C 884.958 545.181, 882.819 540.259, 882.321 537.879 M 843.436 380.702 C 846.667 380.534, 857.626 378.864, 862.825 379.693 C 868.023 380.522, 870.734 383.097, 874.627 385.676 C 878.519 388.254, 884.255 393.584, 886.181 395.166 M 886.181 395.166 C 888.909 392.981, 897.515 384.781, 902.550 382.058 C 907.584 379.335, 914.081 379.367, 916.388 378.829 M 882.321 537.879 C 882.754 534.288, 884.277 540.116, 884.920 516.331 C 885.563 492.545, 885.971 415.360, 886.181 395.166 M 627.562 154.950 C 629.317 153.352, 633.576 147.764, 638.092 145.361 C 642.609 142.959, 644.416 141.063, 654.662 140.536 C 664.908 140.008, 688.965 141.291, 699.568 142.198 C 710.170 143.105, 715.159 145.348, 718.278 145.978 M 566.021 380.895 C 566.477 380.975, 565.459 382.924, 568.761 381.375 C 572.063 379.827, 579.256 374.529, 585.831 371.603 C 592.407 368.678, 601.303 368.635, 608.213 363.824 C 615.124 359.013, 624.115 346.252, 627.295 342.737 M 718.278 145.978 C 719.292 148.746, 723.105 157.882, 724.362 162.586 C 725.619 167.290, 725.787 170.040, 725.818 174.203 C 725.849 178.366, 724.759 185.337, 724.547 187.564 M 627.295 342.737 C 628.880 343.956, 633.320 347.958, 636.803 350.047 C 640.287 352.137, 641.934 354.220, 648.196 355.275 C 654.458 356.330, 670.012 356.194, 674.376 356.378 M 571.946 139.225 C 577.180 139.426, 596.090 139.283, 603.351 140.433 C 610.612 141.582, 611.478 143.701, 615.513 146.121 C 619.548 148.540, 625.554 153.479, 627.562 154.950 M 718.278 145.978 C 720.151 144.407, 726.056 141.707, 729.519 136.550 C 732.982 131.394, 737.467 118.623, 739.057 115.038 M 706.664 268.960 C 708.454 267.125, 714.550 261.632, 717.404 257.950 C 720.257 254.268, 722.720 248.714, 723.783 246.867 M 706.664 268.960 C 707.832 271.254, 712.059 277.988, 713.675 282.719 C 715.292 287.450, 715.916 294.909, 716.364 297.347 M 629.449 267.789 C 637.058 267.715, 662.234 267.153, 675.103 267.348 C 687.972 267.543, 701.404 268.692, 706.664 268.960 M 627.562 154.950 C 627.521 172.208, 627.000 239.689, 627.315 258.496 C 627.629 277.302, 629.094 266.240, 629.449 267.789 M 627.295 342.737 C 627.254 332.500, 626.692 293.807, 627.051 281.316 C 627.410 268.824, 629.050 270.043, 629.449 267.789" fill="none" stroke="#ff2d55" stroke-width="8" stroke-linecap="round" stroke-linejoin="round"/>
</svg>
